<svg width="32" height="32" viewBox="0 0 32 32" fill="none" xmlns="http://www.w3.org/2000/svg">
<g clip-path="url(#clip0_49_79)">
<circle cx="16" cy="16" r="16" fill="white"/>
<path d="M5.79597 12.5832C6.00138 12.5832 6.18056 12.6182 6.33352 12.6881C6.48648 12.7581 6.60339 12.8531 6.68424 12.9733C6.76509 13.0935 6.80552 13.2279 6.80552 13.3765C6.80552 13.6212 6.72904 13.8135 6.57607 13.9533C6.42311 14.091 6.16308 14.1598 5.79597 14.1598H5.36331V14.7892C5.36331 14.8132 5.35457 14.834 5.33709 14.8514C5.31961 14.8689 5.29885 14.8777 5.27481 14.8777H4.5701C4.54606 14.8777 4.5253 14.8689 4.50782 14.8514C4.49034 14.834 4.4816 14.8132 4.4816 14.7892V12.6717C4.4816 12.6477 4.49034 12.6269 4.50782 12.6095C4.5253 12.592 4.54606 12.5832 4.5701 12.5832H5.79597ZM5.78286 13.5534C5.83531 13.5534 5.87682 13.5382 5.90742 13.5076C5.93801 13.4748 5.9533 13.4322 5.9533 13.3797C5.9533 13.3251 5.93801 13.2803 5.90742 13.2453C5.87682 13.2104 5.83531 13.1929 5.78286 13.1929H5.36659V13.5534H5.78286ZM9.67554 13.9304C9.67554 14.2647 9.56409 14.5116 9.34121 14.6712C9.12051 14.8307 8.82551 14.9104 8.45622 14.9104C8.08692 14.9104 7.79084 14.8307 7.56795 14.6712C7.34725 14.5116 7.2369 14.2625 7.2369 13.9238V13.5371C7.2369 13.3142 7.28934 13.1295 7.39423 12.9831C7.5013 12.8345 7.64661 12.7253 7.83017 12.6553C8.01372 12.5854 8.2224 12.5505 8.45622 12.5505C8.69003 12.5505 8.89762 12.5854 9.07899 12.6553C9.26254 12.7253 9.40785 12.8334 9.51493 12.9798C9.622 13.1262 9.67554 13.3098 9.67554 13.5305V13.9304ZM8.12189 13.9927C8.12189 14.0823 8.15139 14.1511 8.21039 14.1992C8.27157 14.2472 8.35351 14.2713 8.45622 14.2713C8.55892 14.2713 8.63977 14.2472 8.69877 14.1992C8.75995 14.1489 8.79055 14.079 8.79055 13.9894V13.4715C8.79055 13.3819 8.75995 13.3131 8.69877 13.265C8.63977 13.2147 8.55892 13.1896 8.45622 13.1896C8.35351 13.1896 8.27157 13.2137 8.21039 13.2617C8.15139 13.3098 8.12189 13.3786 8.12189 13.4682V13.9927ZM12.5193 14.2057C12.5434 14.2057 12.5641 14.2145 12.5816 14.2319C12.5991 14.2494 12.6078 14.2702 12.6078 14.2942V14.7892C12.6078 14.8132 12.5991 14.834 12.5816 14.8514C12.5641 14.8689 12.5434 14.8777 12.5193 14.8777H10.6051C10.5811 14.8777 10.5603 14.8689 10.5429 14.8514C10.5254 14.834 10.5166 14.8132 10.5166 14.7892V12.6717C10.5166 12.6477 10.5254 12.6269 10.5429 12.6095C10.5603 12.592 10.5811 12.5832 10.6051 12.5832H11.3131C11.3372 12.5832 11.3579 12.592 11.3754 12.6095C11.3929 12.6269 11.4016 12.6477 11.4016 12.6717V14.2057H12.5193ZM15.5139 14.2057C15.5379 14.2057 15.5587 14.2145 15.5762 14.2319C15.5937 14.2494 15.6024 14.2702 15.6024 14.2942V14.7892C15.6024 14.8132 15.5937 14.834 15.5762 14.8514C15.5587 14.8689 15.5379 14.8777 15.5139 14.8777H13.5997C13.5757 14.8777 13.5549 14.8689 13.5374 14.8514C13.5199 14.834 13.5112 14.8132 13.5112 14.7892V12.6717C13.5112 12.6477 13.5199 12.6269 13.5374 12.6095C13.5549 12.592 13.5757 12.5832 13.5997 12.5832H14.3077C14.3317 12.5832 14.3525 12.592 14.37 12.6095C14.3875 12.6269 14.3962 12.6477 14.3962 12.6717V14.2057H15.5139Z" fill="#F02C2C"/>
<path d="M17.484 11.5184C16.7954 11.9085 16.3806 12.6021 16.4075 13.3184C16.4248 13.7364 16.5943 14.173 16.8771 14.5176C16.98 14.6425 17.1319 14.7955 17.289 14.9295C17.3138 14.9508 17.1723 15.3065 16.3418 17.2798C15.8048 18.5579 15.347 19.6612 15.3267 19.7312C15.2841 19.8815 15.2848 20.0546 15.328 20.2325C15.3552 20.3386 15.3788 20.3885 15.4853 20.5492C15.6263 20.7664 15.7387 20.8687 15.974 21.0018C16.1459 21.0979 16.4884 21.1936 16.6911 21.2023C16.9679 21.2136 17.1248 21.1854 17.3825 21.0797C17.573 21.002 17.6243 20.9731 17.7148 20.8999C17.866 20.7752 17.976 20.6342 18.0381 20.487C18.0672 20.417 18.4002 19.28 18.7793 17.9578C19.359 15.9288 19.4732 15.5546 19.5072 15.5498C19.9343 15.489 20.2576 15.3932 20.5446 15.2416C21.0981 14.9471 21.4587 14.541 21.6261 14.016C21.7578 13.6048 21.7453 13.2145 21.586 12.7699C21.4811 12.4835 21.1161 11.9886 20.9221 11.8719C20.8079 11.8039 20.6788 11.8075 20.5629 11.882C20.5117 11.9145 20.473 12.0034 20.2825 12.54L20.061 13.1603L19.5652 13.2704C19.2303 13.3449 19.0603 13.3767 19.0422 13.3656C19.026 13.3574 18.8668 13.2 18.6898 13.0184L18.3655 12.6874L18.5834 12.0648C18.7704 11.5297 18.7965 11.4349 18.7754 11.3822C18.7148 11.2247 18.5621 11.1616 18.3488 11.204C18.0466 11.2649 17.7296 11.3804 17.484 11.5184ZM16.7071 19.7388C16.8984 19.7298 17.0634 19.8997 17.0085 20.0513C16.9584 20.1935 16.7962 20.2574 16.629 20.2023C16.5136 20.1628 16.4541 20.0981 16.4392 19.9942C16.421 19.8582 16.5378 19.7479 16.7071 19.7388Z" fill="#F02C2C"/>
<rect x="4.3728" y="15.5054" width="23.1246" height="4.25122" fill="#2897F4"/>
<path d="M6.75382 16.6386C6.7866 16.5796 6.83358 16.5501 6.89476 16.5501H7.49459C7.51863 16.5501 7.53938 16.5589 7.55687 16.5764C7.57435 16.5938 7.58309 16.6146 7.58309 16.6386V18.7561C7.58309 18.7801 7.57435 18.8009 7.55687 18.8183C7.53938 18.8358 7.51863 18.8446 7.49459 18.8446H6.90132C6.87728 18.8446 6.85652 18.8358 6.83904 18.8183C6.82156 18.8009 6.81282 18.7801 6.81282 18.7561V17.74L6.57354 18.212C6.56699 18.2273 6.55169 18.2447 6.52766 18.2644C6.50362 18.2841 6.47303 18.2939 6.43588 18.2939H6.21299C6.17584 18.2939 6.14525 18.2841 6.12122 18.2644C6.09718 18.2447 6.08188 18.2273 6.07533 18.212L5.83605 17.74V18.7561C5.83605 18.7801 5.82731 18.8009 5.80983 18.8183C5.79235 18.8358 5.77159 18.8446 5.74755 18.8446H5.15428C5.13025 18.8446 5.10949 18.8358 5.09201 18.8183C5.07452 18.8009 5.06578 18.7801 5.06578 18.7561V16.6386C5.06578 16.6146 5.07452 16.5938 5.09201 16.5764C5.10949 16.5589 5.13025 16.5501 5.15428 16.5501H5.75411C5.81529 16.5501 5.86227 16.5796 5.89505 16.6386L6.32444 17.4253L6.75382 16.6386ZM9.05023 16.1208C9.07209 16.0945 9.09066 16.0781 9.10596 16.0716C9.12125 16.065 9.1431 16.0607 9.17151 16.0585H9.68939C9.70906 16.0585 9.72436 16.065 9.73528 16.0781C9.74621 16.0891 9.75167 16.1044 9.75167 16.124C9.75167 16.1393 9.74621 16.1524 9.73528 16.1634L9.4239 16.4256C9.40423 16.4409 9.37364 16.4485 9.33212 16.4485H9.29279H8.89618C8.86122 16.4485 8.84374 16.431 8.84374 16.3961C8.84374 16.3786 8.8492 16.3644 8.86013 16.3535L9.05023 16.1208ZM9.6009 18.7331C9.6293 18.8074 9.67847 18.8446 9.74839 18.8446H10.3679C10.3876 18.8446 10.4039 18.838 10.4171 18.8249C10.4323 18.8096 10.44 18.7921 10.44 18.7724L10.4367 18.7528L9.72217 16.6583C9.71343 16.6299 9.69704 16.6048 9.67301 16.5829C9.64897 16.5611 9.61619 16.5501 9.57467 16.5501H8.66346C8.62194 16.5501 8.58917 16.5611 8.56513 16.5829C8.54109 16.6048 8.5247 16.6299 8.51596 16.6583L7.80142 18.7528L7.79814 18.7724C7.79814 18.7921 7.80469 18.8096 7.8178 18.8249C7.8331 18.838 7.85058 18.8446 7.87025 18.8446H8.48974C8.55967 18.8446 8.60883 18.8074 8.63724 18.7331L8.71918 18.5037H9.51895L9.6009 18.7331ZM9.35179 17.8645H8.88635L9.11907 17.1827L9.35179 17.8645ZM13.1101 17.8973C13.1101 18.2185 13.0041 18.4622 12.7921 18.6282L13.0347 18.956C13.0412 18.9691 13.0445 18.9789 13.0445 18.9855V18.9953C13.0445 19.0128 13.038 19.027 13.0249 19.0379C13.0117 19.0511 12.9964 19.0576 12.979 19.0576H12.3529C12.3136 19.0576 12.2797 19.0478 12.2513 19.0281C12.2229 19.0106 12.2032 18.9931 12.1923 18.9757L12.1071 18.8675C12.0393 18.8741 11.9672 18.8773 11.8908 18.8773C11.5215 18.8773 11.2254 18.7976 11.0025 18.6381C10.7818 18.4785 10.6714 18.2294 10.6714 17.8907V17.504C10.6714 17.1653 10.7818 16.9162 11.0025 16.7566C11.2254 16.5971 11.5215 16.5174 11.8908 16.5174C12.26 16.5174 12.555 16.5971 12.7757 16.7566C12.9986 16.9162 13.1101 17.1631 13.1101 17.4974V17.8973ZM11.5564 17.9596C11.5564 18.0492 11.5859 18.118 11.6449 18.1661C11.7061 18.2141 11.7881 18.2382 11.8908 18.2382C11.9935 18.2382 12.0743 18.2141 12.1333 18.1661C12.1945 18.1158 12.2251 18.0459 12.2251 17.9563V17.4384C12.2251 17.3488 12.1945 17.28 12.1333 17.2319C12.0743 17.1817 11.9935 17.1565 11.8908 17.1565C11.7881 17.1565 11.7061 17.1806 11.6449 17.2286C11.5859 17.2767 11.5564 17.3455 11.5564 17.4351V17.9596ZM14.6788 18.8773C14.3117 18.8773 14.02 18.7976 13.8037 18.6381C13.5895 18.4785 13.4825 18.2294 13.4825 17.8907V16.6386C13.4825 16.6146 13.4912 16.5938 13.5087 16.5764C13.5262 16.5589 13.5469 16.5501 13.571 16.5501H14.256C14.28 16.5501 14.3008 16.5589 14.3183 16.5764C14.3358 16.5938 14.3445 16.6146 14.3445 16.6386V17.9432C14.3445 18.0328 14.374 18.1016 14.433 18.1497C14.4942 18.1978 14.5761 18.2218 14.6788 18.2218C14.7815 18.2218 14.8624 18.1978 14.9214 18.1497C14.9826 18.1016 15.0132 18.0328 15.0132 17.9432V16.6386C15.0132 16.6146 15.0219 16.5938 15.0394 16.5764C15.0569 16.5589 15.0776 16.5501 15.1017 16.5501H15.7867C15.8107 16.5501 15.8315 16.5589 15.849 16.5764C15.8665 16.5938 15.8752 16.6146 15.8752 16.6386V17.8907C15.8752 18.2294 15.767 18.4785 15.5507 18.6381C15.3366 18.7976 15.0459 18.8773 14.6788 18.8773ZM17.9094 18.1726H18.5027C18.5267 18.1726 18.5475 18.1814 18.5649 18.1988C18.5824 18.2163 18.5912 18.2371 18.5912 18.2611V18.7561C18.5912 18.7801 18.5824 18.8009 18.5649 18.8183C18.5475 18.8358 18.5267 18.8446 18.5027 18.8446H16.4246C16.4005 18.8446 16.3798 18.8358 16.3623 18.8183C16.3448 18.8009 16.3361 18.7801 16.3361 18.7561V18.2611C16.3361 18.2371 16.3448 18.2163 16.3623 18.1988C16.3798 18.1814 16.4005 18.1726 16.4246 18.1726H17.0244V17.2221H16.4246C16.4005 17.2221 16.3798 17.2133 16.3623 17.1959C16.3448 17.1784 16.3361 17.1576 16.3361 17.1336V16.6386C16.3361 16.6146 16.3448 16.5938 16.3623 16.5764C16.3798 16.5589 16.4005 16.5501 16.4246 16.5501H18.5027C18.5267 16.5501 18.5475 16.5589 18.5649 16.5764C18.5824 16.5938 18.5912 16.6146 18.5912 16.6386V17.1336C18.5912 17.1576 18.5824 17.1784 18.5649 17.1959C18.5475 17.2133 18.5267 17.2221 18.5027 17.2221H17.9094V18.1726ZM21.2744 16.5501C21.2984 16.5501 21.3192 16.5589 21.3366 16.5764C21.3541 16.5938 21.3629 16.6146 21.3629 16.6386V18.7561C21.3629 18.7801 21.3541 18.8009 21.3366 18.8183C21.3192 18.8358 21.2984 18.8446 21.2744 18.8446H20.7466C20.6942 18.8446 20.6505 18.8216 20.6155 18.7757L19.901 17.8645V18.7561C19.901 18.7801 19.8922 18.8009 19.8748 18.8183C19.8573 18.8358 19.8365 18.8446 19.8125 18.8446H19.2028C19.1788 18.8446 19.158 18.8358 19.1406 18.8183C19.1231 18.8009 19.1143 18.7801 19.1143 18.7561V16.6386C19.1143 16.6146 19.1231 16.5938 19.1406 16.5764C19.158 16.5589 19.1788 16.5501 19.2028 16.5501H19.7338C19.7863 16.5501 19.8289 16.572 19.8617 16.6157L20.5762 17.6023V16.6386C20.5762 16.6146 20.5849 16.5938 20.6024 16.5764C20.6199 16.5589 20.6407 16.5501 20.6647 16.5501H21.2744ZM22.5612 18.7331C22.5328 18.8074 22.4837 18.8446 22.4137 18.8446H21.7942C21.7746 18.8446 21.7571 18.838 21.7418 18.8249C21.7287 18.8096 21.7221 18.7921 21.7221 18.7724L21.7254 18.7528L22.44 16.6583C22.4487 16.6299 22.4651 16.6048 22.4891 16.5829C22.5132 16.5611 22.5459 16.5501 22.5875 16.5501H23.4987C23.5402 16.5501 23.573 16.5611 23.597 16.5829C23.621 16.6048 23.6374 16.6299 23.6462 16.6583L24.3607 18.7528L24.364 18.7724C24.364 18.7921 24.3563 18.8096 24.341 18.8249C24.3279 18.838 24.3115 18.8446 24.2919 18.8446H23.6724C23.6025 18.8446 23.5533 18.8074 23.5249 18.7331L23.4429 18.5037H22.6432L22.5612 18.7331ZM23.0431 17.1827L22.8103 17.8645H23.2758L23.0431 17.1827ZM25.9983 17.3827C26.2387 17.4089 26.431 17.4515 26.5752 17.5105C26.7216 17.5695 26.8276 17.6471 26.8931 17.7432C26.9587 17.8394 26.9915 17.9596 26.9915 18.1038C26.9915 18.2611 26.9401 18.3988 26.8374 18.5168C26.7369 18.6326 26.597 18.7222 26.4178 18.7856C26.2387 18.8467 26.0344 18.8773 25.8049 18.8773C25.5492 18.8773 25.3329 18.8457 25.1559 18.7823C24.9789 18.7189 24.8467 18.6348 24.7593 18.5299C24.6719 18.4228 24.6282 18.3059 24.6282 18.1792C24.6282 18.1573 24.6348 18.1398 24.6479 18.1267C24.6632 18.1136 24.6817 18.1071 24.7036 18.1071H25.3755C25.4214 18.1071 25.4586 18.1213 25.487 18.1497C25.5241 18.1846 25.5656 18.2087 25.6115 18.2218C25.6574 18.2327 25.7219 18.2382 25.8049 18.2382C26.0125 18.2382 26.1163 18.2065 26.1163 18.1431C26.1163 18.1169 26.1021 18.095 26.0737 18.0776C26.0475 18.0579 25.9994 18.0415 25.9295 18.0284C25.8617 18.0131 25.7612 17.9978 25.6279 17.9825C25.3285 17.9476 25.0991 17.8733 24.9396 17.7596C24.7801 17.6438 24.7003 17.481 24.7003 17.2712C24.7003 17.1227 24.7451 16.9915 24.8347 16.8779C24.9243 16.7643 25.051 16.6758 25.2149 16.6124C25.381 16.549 25.5733 16.5174 25.7918 16.5174C26.0191 16.5174 26.2179 16.5534 26.3884 16.6255C26.5588 16.6955 26.6888 16.7829 26.7784 16.8877C26.868 16.9926 26.9128 17.0953 26.9128 17.1959C26.9128 17.2177 26.9051 17.2352 26.8898 17.2483C26.8767 17.2614 26.8582 17.268 26.8341 17.268H26.1294C26.0923 17.268 26.0584 17.2549 26.0278 17.2286C26.0038 17.2068 25.9754 17.1893 25.9426 17.1762C25.9098 17.1631 25.8595 17.1565 25.7918 17.1565C25.6454 17.1565 25.5722 17.1871 25.5722 17.2483C25.5722 17.2811 25.6006 17.3073 25.6574 17.327C25.7142 17.3444 25.8279 17.363 25.9983 17.3827Z" fill="white"/>
</g>
<defs>
<clipPath id="clip0_49_79">
<rect width="32" height="32" fill="white"/>
</clipPath>
</defs>
</svg>
